<!--?xml version="1.0" encoding="utf-8"?-->
<!-- Generator: Adobe Illustrator 18.0.0, SVG Export Plug-In . SVG Version: 6.00 Build 0)  -->

<svg version="1.1" id="_x31_0" xmlns="http://www.w3.org/2000/svg" xmlns:xlink="http://www.w3.org/1999/xlink" x="0px" y="0px" viewBox="0 0 512 512" style="width: 128px; height: 128px; opacity: 1;" xml:space="preserve">
<style type="text/css">
	.st0{fill:#374149;}
</style>
<g>
	<polygon class="st0" points="223.386,329.734 214.687,346.133 297.301,346.133 288.602,329.734 	" style="fill: rgb(58, 171, 210);"></polygon>
	<rect x="144.211" y="165.863" class="st0" width="223.566" height="143.137" style="fill: rgb(58, 171, 210);"></rect>
	<path class="st0" d="M256,0C114.617,0,0,114.614,0,256s114.617,256,256,256c141.386,0,256-114.614,256-256S397.386,0,256,0z
		 M429.508,364.383c0,4.3-3.52,7.82-7.852,7.82H90.348c-4.336,0-7.852-3.52-7.852-7.82v-3.422c0-0.586,0.164-1.172,0.454-1.789
		l1.762-3.258l32.426-40.79c0.129-0.683,0.453-1.336,1.008-1.957h0.004V154.461c0-8.062,6.598-14.66,14.66-14.66h246.374
		c8.063,0,14.657,6.598,14.657,14.66v158.695c0.008,0.004,0.011,0.008,0.015,0.012c0.555,0.621,0.914,1.274,1.012,1.957
		l32.426,40.79l1.758,3.258c0.294,0.617,0.458,1.203,0.458,1.789V364.383z" style="fill: rgb(58, 171, 210);"></path>
</g>
</svg>
